<svg width="32" height="33" viewBox="0 0 32 33" fill="none" xmlns="http://www.w3.org/2000/svg">
<path d="M0.199951 12.4103C0.299951 6.77893 4.99995 2.21558 10.8 2.21558C16.6 2.21558 21.2999 6.77893 21.2999 12.5074C21.2999 18.1388 16.5 22.7021 10.7 22.7021C4.89995 22.7021 0.199951 18.0417 0.199951 12.4103ZM10.8 19.9835C15.1 19.9835 18.6 16.5853 18.6 12.4103C18.6 8.23532 15.1 4.83708 10.8 4.83708C6.49995 4.83708 2.99995 8.23532 2.99995 12.4103C2.99995 16.5853 6.49995 19.9835 10.8 19.9835Z" fill="white"/>
<path d="M29.7999 29.9841L16.4999 19.3039C16.1999 19.0127 16.0999 18.6243 16.3999 18.2359L17.0999 17.3621C17.3999 17.0708 17.7999 16.9737 18.1999 17.265L31.4999 27.9452C31.7999 28.2364 31.8999 28.6248 31.5999 29.0132L30.8999 29.887C30.5999 30.1783 30.0999 30.1783 29.7999 29.9841Z" fill="white"/>
</svg>
