<svg width="32" height="32" viewBox="0 0 32 32" fill="none" xmlns="http://www.w3.org/2000/svg">
<path d="M6.68555 8.75446C6.68555 3.91496 10.7485 -0.0099858 15.7389 0.00271629C20.7033 0.0154184 24.727 3.95307 24.7139 8.77986C24.7139 13.6194 20.651 17.5443 15.6605 17.5316C10.7093 17.5189 6.68555 13.5813 6.68555 8.75446ZM15.6867 15.2579C19.3707 15.2579 22.3624 12.3746 22.3624 8.79257C22.3624 5.21058 19.3969 2.3018 15.7128 2.3018C12.0287 2.3018 9.03708 5.18517 9.03708 8.76716C9.03708 12.3492 12.0157 15.2452 15.6867 15.2579Z" fill="white"/>
<path d="M16.7188 20.5928C22.3624 20.8214 27.5358 23.5905 31.0892 29.1032C31.2068 29.2937 31.3244 29.4969 31.3766 29.7002C31.5203 30.2591 31.2068 30.8307 30.6842 31.0212C30.1355 31.2244 29.5477 31.0339 29.208 30.4877C28.4503 29.2556 27.5619 28.1251 26.4907 27.1216C19.2924 20.3514 7.45636 21.9011 2.36138 30.2845C1.89108 31.0466 1.32933 31.2879 0.689187 30.9958C0.00985707 30.6782 -0.199169 29.9796 0.205816 29.3064C1.45996 27.1725 3.14523 25.3815 5.18322 23.9334C8.20101 21.7741 11.9504 20.5928 16.7188 20.5928Z" fill="white"/>
</svg>
