<?xml version="1.0" encoding="utf-8"?>
<!-- Generator: Adobe Illustrator 27.9.0, SVG Export Plug-In . SVG Version: 6.00 Build 0)  -->
<svg version="1.1" id="Layer_1" xmlns="http://www.w3.org/2000/svg" xmlns:xlink="http://www.w3.org/1999/xlink" x="0px" y="0px"
	 viewBox="0 0 46 60" style="enable-background:new 0 0 46 60;" xml:space="preserve">
<style type="text/css">
	.st0{fill:url(#SVGID_1_);}
	.st1{fill:url(#SVGID_00000170267810659392770550000001529463236126531232_);}
	.st2{fill:url(#SVGID_00000062171841734745271990000012721115109064968355_);}
	.st3{fill:#FFFFFF;}
	.st4{fill:none;stroke:#808080;stroke-miterlimit:10;}
	.st5{fill:#808080;stroke:#808080;stroke-miterlimit:10;}
	.st6{fill:url(#SVGID_00000163059467576056422090000013623418651893048251_);}
</style>
<g>
	
		<radialGradient id="SVGID_1_" cx="23.1254" cy="55.0825" r="3.7686" gradientTransform="matrix(1 0 0 -1 0 61.4703)" gradientUnits="userSpaceOnUse">
		<stop  offset="0.83" style="stop-color:#B3B3B3;stop-opacity:0"/>
		<stop  offset="0.83" style="stop-color:#808080"/>
		<stop  offset="0.94" style="stop-color:#666666"/>
	</radialGradient>
	<circle class="st0" cx="23.1" cy="6.4" r="3.8"/>
	
		<linearGradient id="SVGID_00000096047365281547612090000014297762180193124280_" gradientUnits="userSpaceOnUse" x1="20.939" y1="52.8176" x2="25.3154" y2="48.4375" gradientTransform="matrix(1 0 0 -1 0 61.4703)">
		<stop  offset="0" style="stop-color:#B3B3B3"/>
		<stop  offset="0.34" style="stop-color:#808080"/>
		<stop  offset="0.56" style="stop-color:#666666"/>
	</linearGradient>
	<path style="fill:url(#SVGID_00000096047365281547612090000014297762180193124280_);" d="M23.1,7.3L23.1,7.3c1.1,0,2.1,0.9,2.1,2.1
		v3.3c0,0.7-0.6,1.2-1.2,1.2h-1.7c-0.7,0-1.2-0.6-1.2-1.2V9.4C21.1,8.2,22,7.3,23.1,7.3L23.1,7.3z"/>
	
		<radialGradient id="SVGID_00000154387293738485574420000005805347632026015140_" cx="23.0853" cy="27.0955" r="23.006" gradientTransform="matrix(1 0 0 -1 0 61.4703)" gradientUnits="userSpaceOnUse">
		<stop  offset="0" style="stop-color:#999999"/>
		<stop  offset="0.7" style="stop-color:#CCCCCC"/>
		<stop  offset="0.82" style="stop-color:#808080"/>
		<stop  offset="0.95" style="stop-color:#666666"/>
	</radialGradient>
	<circle style="fill:url(#SVGID_00000154387293738485574420000005805347632026015140_);" cx="23.1" cy="34.4" r="23"/>
	<circle class="st3" cx="23.1" cy="34.4" r="17.6"/>
	<g>
		<line class="st4" x1="23.3" y1="33.6" x2="12.7" y2="30.4"/>
		<polygon class="st5" points="12,30.2 13.2,29.9 12.9,31.1 		"/>
	</g>
	<g>
		<line class="st4" x1="23.2" y1="33.8" x2="23.2" y2="28"/>
		<polygon class="st5" points="23.2,27.3 23.9,28.4 22.6,28.4 		"/>
	</g>
	
		<radialGradient id="SVGID_00000069370850561176317180000011896097517580134843_" cx="266.3297" cy="-252.2393" r="1.4972" gradientTransform="matrix(0.54 0 0 -0.54 -120.6767 -102.6679)" gradientUnits="userSpaceOnUse">
		<stop  offset="0" style="stop-color:#808080"/>
		<stop  offset="0.94" style="stop-color:#999999"/>
	</radialGradient>
	<circle style="fill:url(#SVGID_00000069370850561176317180000011896097517580134843_);" cx="23.2" cy="33.6" r="0.8"/>
</g>
</svg>
